<?xml version="1.0" standalone="no"?>
<!DOCTYPE svg PUBLIC "-//W3C//DTD SVG 20010904//EN"
 "http://www.w3.org/TR/2001/REC-SVG-20010904/DTD/svg10.dtd">
<svg version="1.0" xmlns="http://www.w3.org/2000/svg"
 width="1920.000000pt" height="1222.000000pt" viewBox="0 0 1920.000000 1222.000000"
 preserveAspectRatio="xMidYMid meet">

<g transform="translate(0.000000,1222.000000) scale(0.100000,-0.100000)"
fill="#ED9F2A" stroke="none">
<path d="M2415 12198 c31 -102 135 -220 277 -316 161 -109 299 -170 653 -292
454 -157 627 -235 798 -363 470 -352 778 -806 882 -1300 64 -301 55 -541 -31
-841 -39 -136 -113 -328 -244 -636 -104 -243 -201 -524 -225 -650 -86 -456 23
-845 318 -1126 306 -293 716 -427 1352 -441 463 -10 810 31 1680 202 509 100
724 138 945 169 335 46 411 51 775 51 317 0 361 -2 470 -22 444 -81 686 -247
782 -538 25 -75 27 -91 27 -275 1 -251 -18 -356 -159 -875 -89 -330 -99 -388
-99 -605 0 -168 3 -207 22 -283 47 -188 118 -327 228 -445 80 -88 160 -146
280 -206 365 -182 739 -256 1479 -296 1534 -81 2598 -245 3381 -520 314 -110
637 -279 858 -448 83 -63 246 -222 316 -307 365 -446 469 -1028 305 -1721 -14
-58 -25 -108 -25 -110 0 -2 77 -4 170 -4 94 0 170 2 170 4 0 2 11 80 25 173
38 258 48 425 35 605 -54 772 -359 1462 -888 2009 -594 616 -1311 850 -2522
825 -280 -5 -448 -13 -1035 -47 -282 -17 -914 -17 -1080 -1 -287 28 -490 68
-617 121 -227 96 -391 257 -454 446 -24 74 -26 90 -22 200 4 104 10 134 42
229 44 133 128 301 275 551 62 105 136 240 166 300 119 243 153 489 93 685
-44 145 -109 222 -304 361 -82 59 -170 129 -196 156 -155 167 -154 378 3 613
109 163 448 487 829 791 343 274 681 516 1162 832 616 405 697 451 948 545
240 90 428 128 592 120 174 -9 261 -56 320 -175 29 -59 32 -75 32 -152 0 -96
-15 -152 -72 -266 -88 -176 -217 -334 -500 -610 -849 -828 -1123 -1110 -1398
-1441 -324 -390 -593 -839 -716 -1194 -82 -238 -113 -428 -105 -640 6 -179 35
-300 106 -445 155 -315 405 -490 765 -535 131 -17 438 -7 616 19 74 11 243 38
375 60 422 70 489 76 890 76 238 0 396 -4 465 -13 600 -75 1134 -273 1575
-583 135 -95 331 -297 450 -464 146 -203 215 -316 442 -725 293 -526 433 -735
628 -939 130 -136 317 -275 438 -324 l37 -16 0 622 0 622 -87 23 c-331 84
-727 423 -956 814 -30 51 -107 197 -170 323 -167 331 -270 481 -427 621 -291
259 -673 409 -1164 455 -185 17 -642 6 -1021 -26 -382 -31 -811 -43 -980 -26
-151 15 -310 50 -411 91 -223 89 -401 257 -477 450 -39 101 -51 174 -50 310 2
370 208 840 618 1415 175 244 337 448 826 1040 687 830 929 1207 1015 1580 24
105 24 285 0 374 -80 297 -291 405 -678 346 -418 -63 -965 -297 -1866 -798
-141 -79 -320 -176 -397 -217 -77 -40 -237 -124 -355 -186 -921 -483 -1344
-686 -1952 -940 -411 -171 -549 -222 -738 -273 -289 -77 -566 -79 -800 -5
-499 157 -869 662 -962 1309 -30 209 -10 637 43 915 143 749 523 1515 1054
2122 47 53 85 100 85 103 0 3 -125 5 -278 5 l-279 0 -28 -67 c-91 -218 -245
-487 -422 -735 -367 -515 -422 -600 -518 -803 -63 -133 -88 -197 -124 -320
-43 -151 -53 -234 -58 -470 -5 -253 2 -349 62 -795 49 -368 58 -473 58 -680 0
-247 -24 -402 -90 -594 -71 -205 -160 -352 -285 -472 -100 -96 -178 -150 -307
-214 -487 -241 -1133 -216 -1551 59 -87 57 -215 186 -271 273 -131 205 -193
480 -169 751 27 304 123 594 368 1117 63 135 149 322 192 415 312 687 371
1109 210 1511 -68 170 -171 315 -355 499 -232 233 -279 298 -321 445 l-22 75
-1377 3 -1376 2 6 -22z"/>
<path d="M10760 12147 c-283 -369 -536 -795 -655 -1102 -131 -334 -161 -659
-84 -889 88 -261 281 -437 539 -491 228 -48 550 11 865 158 285 133 585 341
1420 983 917 705 1189 891 1878 1280 l228 129 -564 3 -565 2 -158 -158 c-239
-238 -448 -396 -929 -702 -483 -307 -658 -430 -885 -625 -411 -351 -897 -484
-1058 -290 -45 55 -62 122 -62 240 0 220 64 363 314 704 52 70 155 222 229
337 75 115 179 272 231 348 53 76 96 140 96 142 0 2 -177 4 -392 4 l-393 -1
-55 -72z"/>
<path d="M16521 12182 c58 -65 142 -127 291 -213 207 -120 317 -206 457 -362
333 -371 507 -866 471 -1342 -26 -338 -118 -637 -327 -1062 -85 -173 -124
-246 -362 -676 -303 -549 -427 -839 -508 -1192 -43 -189 -55 -380 -29 -489 23
-99 69 -177 143 -246 130 -122 221 -148 563 -160 314 -10 385 -27 575 -138 94
-55 231 -186 325 -312 224 -299 383 -429 592 -482 115 -29 276 -22 401 18 l87
27 0 637 0 638 -96 12 c-564 71 -999 382 -1171 839 -120 319 -116 735 12 1118
46 140 184 418 275 558 171 261 322 437 692 811 l288 290 0 882 0 882 -1356 0
-1356 0 33 -38z"/>
<path d="M865 10664 c-260 -29 -514 -93 -660 -166 -22 -11 -77 -45 -123 -74
l-82 -54 0 -334 0 -335 102 45 c273 120 565 195 868 225 163 15 439 6 590 -20
693 -120 1163 -556 1335 -1241 48 -189 60 -298 59 -545 -1 -244 -10 -331 -60
-552 -87 -391 -265 -800 -554 -1278 -40 -66 -83 -136 -96 -155 -13 -19 -200
-300 -415 -625 -402 -605 -636 -955 -786 -1175 -158 -231 -494 -698 -578 -802
-110 -137 -258 -285 -372 -370 l-93 -70 0 -259 0 -258 247 155 c267 168 347
227 449 338 155 165 232 282 504 761 214 377 372 575 552 692 172 113 346 130
507 51 140 -68 204 -176 272 -458 64 -268 121 -369 237 -423 41 -19 64 -22
177 -21 108 0 145 5 220 26 346 99 452 115 560 84 157 -45 289 -194 340 -381
9 -33 19 -114 22 -181 14 -317 -107 -625 -383 -974 -37 -47 -205 -223 -373
-391 -384 -384 -447 -450 -548 -575 -277 -342 -466 -692 -614 -1136 -32 -97
-59 -179 -59 -182 0 -3 103 -6 228 -6 l228 0 36 73 c218 429 445 794 931 1502
371 538 653 859 952 1081 140 104 232 157 385 219 501 206 1006 127 1313 -204
134 -145 201 -318 214 -551 12 -235 -36 -487 -177 -915 -138 -423 -231 -803
-284 -1162 l-6 -43 225 0 c124 0 225 2 225 4 0 3 9 54 20 113 43 224 124 495
219 732 48 119 191 408 249 502 242 397 381 696 448 964 37 146 44 363 16 497
-92 442 -476 601 -1237 513 -551 -64 -857 4 -964 213 -89 175 -18 453 158 614
182 167 443 271 968 388 265 58 351 82 718 195 485 150 775 220 1020 246 261
28 521 -18 698 -122 304 -179 416 -544 301 -987 -29 -113 -84 -253 -201 -517
-194 -434 -316 -746 -388 -987 -156 -523 -148 -852 26 -1042 128 -140 300
-183 684 -172 847 26 1283 57 2830 201 320 30 811 72 1515 131 130 11 257 14
430 11 250 -5 325 -14 495 -58 340 -88 579 -295 663 -573 59 -195 17 -507
-103 -773 -19 -41 -35 -79 -35 -84 0 -5 171 -9 384 -9 l385 0 49 83 c105 174
162 312 202 493 18 78 23 130 23 249 0 207 -30 340 -115 510 -191 381 -579
618 -1153 704 -193 29 -311 39 -928 71 -1157 61 -1519 81 -2157 116 -470 26
-799 38 -1165 44 -381 6 -537 12 -615 24 -286 43 -458 115 -590 246 -146 145
-205 347 -166 570 27 154 78 287 241 620 166 340 194 405 224 514 51 187 60
426 22 571 -77 289 -269 474 -612 588 -424 142 -1062 150 -1949 26 -803 -113
-1092 -170 -2025 -402 -880 -219 -1047 -250 -1243 -227 -285 34 -463 173 -527
415 -22 83 -30 319 -16 495 23 297 74 578 220 1225 145 645 191 1008 177 1400
-23 621 -155 1095 -414 1481 -319 474 -758 730 -1437 836 -175 27 -665 34
-860 12z"/>
<path d="M1400 2392 c-194 -14 -428 -109 -611 -247 -83 -62 -563 -530 -713
-693 l-76 -84 0 -684 0 -684 498 0 497 0 91 92 c369 378 693 817 849 1151 186
399 191 702 16 920 -75 92 -203 178 -311 207 -50 14 -186 26 -240 22z"/>
</g>
</svg>
