<?xml version="1.0" encoding="UTF-8"?>
<!DOCTYPE svg PUBLIC "-//W3C//DTD SVG 1.1//EN" "http://www.w3.org/Graphics/SVG/1.1/DTD/svg11.dtd">
<svg xmlns="http://www.w3.org/2000/svg" version="1.1" width="1158px" height="1113px" style="shape-rendering:geometricPrecision; text-rendering:geometricPrecision; image-rendering:optimizeQuality; fill-rule:evenodd; clip-rule:evenodd" xmlns:xlink="http://www.w3.org/1999/xlink">
<g><path style="opacity:0.909" fill="#0b0704" d="M 925.5,887.5 C 925.307,883.434 925.64,879.434 926.5,875.5C 962.177,850.655 992.01,819.988 1016,783.5C 1021.34,774.521 1026.17,765.355 1030.5,756C 1038.4,734.598 1041.57,712.432 1040,689.5C 1035.56,666.055 1022.06,650.221 999.5,642C 991.125,641.262 982.792,641.595 974.5,643C 956.459,649.02 939.793,657.687 924.5,669C 916.055,674.614 908.388,681.114 901.5,688.5C 884.924,702.24 869.424,717.24 855,733.5C 844.333,746.167 833.667,758.833 823,771.5C 820.978,775.003 818.811,778.337 816.5,781.5C 811.473,781.497 806.473,781.164 801.5,780.5C 804.321,778.18 807.654,777.013 811.5,777C 826.293,758.374 841.626,740.208 857.5,722.5C 867.167,712.167 877.167,702.167 887.5,692.5C 908.155,672.671 931.155,656.171 956.5,643C 962.884,642.141 968.884,640.141 974.5,637C 984.481,635.251 994.481,635.084 1004.5,636.5C 1011.28,595.486 1011.11,554.486 1004,513.5C 992.991,456.469 973.658,402.469 946,351.5C 945.333,350.167 944.667,350.167 944,351.5C 939.061,360.101 933.728,368.435 928,376.5C 926.855,377.684 925.688,377.684 924.5,376.5C 924.134,374.095 923.467,371.762 922.5,369.5C 923.396,367.199 923.562,364.866 923,362.5C 916.551,344.077 907.551,327.077 896,311.5C 866.149,270.972 828.983,239.139 784.5,216C 778.577,213.535 772.577,211.368 766.5,209.5C 766.178,207.278 766.845,205.444 768.5,204C 775.228,198.941 782.228,194.274 789.5,190C 791.255,189.28 792.089,188.113 792,186.5C 780.697,179.097 768.863,172.597 756.5,167C 742.022,161.007 727.355,155.507 712.5,150.5C 710.971,150.529 709.804,151.196 709,152.5C 701.167,167 690,178.167 675.5,186C 669.711,187.35 664.044,189.017 658.5,191C 652.5,195 646.5,199 640.5,203C 712.697,213.011 772.864,245.177 821,299.5C 864.284,350.405 892.951,408.738 907,474.5C 909.567,488.5 912.067,502.5 914.5,516.5C 914.532,521.391 915.199,526.057 916.5,530.5C 919.365,554.623 920.032,578.956 918.5,603.5C 917.215,606.589 916.549,609.922 916.5,613.5C 915.674,617.136 915.008,620.803 914.5,624.5C 913.414,624.38 912.747,623.713 912.5,622.5C 913.156,620.547 913.489,618.547 913.5,616.5C 917.45,585.512 917.284,554.512 913,523.5C 907.493,487.475 899.16,452.141 888,417.5C 866.555,361.746 834.055,313.58 790.5,273C 755.111,243.137 714.778,222.47 669.5,211C 658.602,208.824 647.602,207.491 636.5,207C 634.579,205.759 634.246,204.259 635.5,202.5C 645.276,197.031 653.776,190.031 661,181.5C 663.31,176.734 663.977,171.734 663,166.5C 655.29,158.972 646.123,156.472 635.5,159C 627.88,159.976 621.547,163.309 616.5,169C 615.5,169.167 614.5,169.333 613.5,169.5C 609.41,167.263 605.41,164.763 601.5,162C 593.071,158.922 584.404,157.922 575.5,159C 562.281,164.04 559.781,172.54 568,184.5C 574.929,189.425 581.262,195.092 587,201.5C 587.711,203.367 587.211,204.867 585.5,206C 530.626,212.447 481.96,233.114 439.5,268C 421.915,283.086 405.581,299.253 390.5,316.5C 390.5,315.5 390.5,314.5 390.5,313.5C 439.953,251.919 503.953,214.753 582.5,202C 576.859,198.355 571.859,194.022 567.5,189C 556.045,189.271 546.045,185.605 537.5,178C 531.865,171.686 525.698,166.186 519,161.5C 491.128,166.194 465.295,176.028 441.5,191C 440.167,192 440.167,193 441.5,194C 448.905,198.026 455.905,202.526 462.5,207.5C 462.67,208.822 462.337,209.989 461.5,211C 412.37,227.978 372.537,257.478 342,299.5C 324.615,321.261 311.948,345.595 304,372.5C 303.208,374.644 301.708,375.977 299.5,376.5C 297.164,374.996 295.331,372.996 294,370.5C 289.333,361.833 284.667,353.167 280,344.5C 249.72,403.343 230.72,465.676 223,531.5C 218.878,571.584 222.545,610.918 234,649.5C 240.697,670.9 251.03,690.234 265,707.5C 292.21,736.345 323.71,759.178 359.5,776C 412.006,801.167 467.34,815.501 525.5,819C 526.056,818.617 526.389,818.117 526.5,817.5C 536.821,813.503 547.155,809.503 557.5,805.5C 545.255,812.982 532.589,819.815 519.5,826C 496.402,844.021 482.402,867.521 477.5,896.5C 477.461,897.583 477.127,898.583 476.5,899.5C 524.367,896.816 565.2,878.483 599,844.5C 606.383,836.625 611.883,827.625 615.5,817.5C 616.822,817.33 617.989,817.663 619,818.5C 640.683,863.293 676.183,890.126 725.5,899C 734.109,900.493 742.775,901.326 751.5,901.5C 751.784,899.585 751.451,897.919 750.5,896.5C 748.98,873.465 740.813,853.131 726,835.5C 706.995,814.072 683.495,799.906 655.5,793C 641.841,793.027 628.174,793.194 614.5,793.5C 612.5,793.5 610.5,793.5 608.5,793.5C 606.167,793.5 603.833,793.5 601.5,793.5C 582.306,792.291 562.973,790.957 543.5,789.5C 543.167,789.5 542.833,789.5 542.5,789.5C 538.382,788.291 534.049,787.624 529.5,787.5C 501.395,784.251 474.395,777.251 448.5,766.5C 449.209,765.596 450.209,765.263 451.5,765.5C 466.362,770.465 481.362,774.965 496.5,779C 517.292,783.381 538.292,786.215 559.5,787.5C 573.935,789.712 588.602,790.712 603.5,790.5C 657.295,792.214 709.795,784.88 761,768.5C 772.457,763.849 783.624,758.849 794.5,753.5C 797.049,753.613 799.382,752.946 801.5,751.5C 802.107,751.624 802.44,751.957 802.5,752.5C 773.394,768.033 742.727,779.033 710.5,785.5C 694.525,787.806 678.525,789.973 662.5,792C 679.228,797.031 694.561,804.697 708.5,815C 709.448,815.483 710.448,815.649 711.5,815.5C 727.589,815.094 743.589,813.761 759.5,811.5C 759.855,810.478 760.522,809.811 761.5,809.5C 762.461,811.265 762.795,813.265 762.5,815.5C 746.311,816.371 729.978,817.537 713.5,819C 739.611,841.394 753.278,869.894 754.5,904.5C 692.842,903.774 647.009,876.774 617,823.5C 602.679,848.155 582.846,866.988 557.5,880C 531.341,894.539 503.341,902.205 473.5,903C 477.301,870.069 492.301,843.402 518.5,823C 494.26,820.238 470.26,816.071 446.5,810.5C 437.316,808.035 427.983,805.535 418.5,803C 413.007,800.248 407.34,798.082 401.5,796.5C 401.5,797.5 401.5,798.5 401.5,799.5C 398.53,815.85 395.363,832.183 392,848.5C 391.182,851.227 391.348,853.894 392.5,856.5C 405.264,860.608 418.264,863.608 431.5,865.5C 432.951,847.697 436.617,830.364 442.5,813.5C 443.5,813.5 444.5,813.5 445.5,813.5C 440.169,829.993 436.169,846.826 433.5,864C 435.507,866.036 436.673,868.536 437,871.5C 437.667,877.167 437.667,882.833 437,888.5C 437.146,895.191 433.979,898.191 427.5,897.5C 426.879,902.207 426.379,906.873 426,911.5C 431.966,920.953 438.799,929.619 446.5,937.5C 445.596,938.209 445.263,939.209 445.5,940.5C 436.91,932.663 429.743,923.663 424,913.5C 423.503,909.476 423.669,905.476 424.5,901.5C 425.234,900.292 425.567,898.959 425.5,897.5C 421.466,897.328 417.466,896.828 413.5,896C 404.161,893.053 394.828,890.219 385.5,887.5C 385.5,888.5 385.5,889.5 385.5,890.5C 383.514,898.112 381.681,905.779 380,913.5C 378,915.5 376,917.5 374,919.5C 372.919,935.077 369.753,950.077 364.5,964.5C 367.139,949.249 369.306,933.915 371,918.5C 373.341,915.329 375.841,912.329 378.5,909.5C 380.23,902.014 381.897,894.514 383.5,887C 383.532,885.029 382.698,883.529 381,882.5C 380.413,875.465 380.746,868.465 382,861.5C 383.191,858.466 385.358,856.799 388.5,856.5C 391.653,836.403 395.319,816.403 399.5,796.5C 387.697,792.096 376.031,787.429 364.5,782.5C 332.923,767.707 303.923,748.873 277.5,726C 253.212,702.617 236.712,674.451 228,641.5C 219.187,608.033 216.187,574.033 219,539.5C 225.788,469.805 245.121,403.805 277,341.5C 263.812,292.6 273.479,248.934 306,210.5C 341.46,176.012 382.626,166.845 429.5,183C 432.912,184.455 436.079,186.288 439,188.5C 448.48,181.841 458.647,176.341 469.5,172C 485.581,166.195 501.914,161.195 518.5,157C 511.229,141.048 512.062,125.548 521,110.5C 531.392,99.2572 544.225,94.7572 559.5,97C 574.974,100.486 588.141,107.986 599,119.5C 604.591,126.353 609.424,133.686 613.5,141.5C 624.754,118.406 642.754,103.573 667.5,97C 691.156,94.023 706.323,103.856 713,126.5C 714.301,133.489 714.801,140.489 714.5,147.5C 742.377,156.109 768.71,167.942 793.5,183C 795.167,183.667 796.833,183.667 798.5,183C 849.594,166.145 892.761,177.979 928,218.5C 955.601,257.273 962.101,299.44 947.5,345C 977.559,401.175 998.059,460.675 1009,523.5C 1015.43,561.152 1014.93,598.652 1007.5,636C 1032.59,648.468 1046.25,668.801 1048.5,697C 1048.42,702.723 1048.42,708.723 1048.5,715C 1043.37,748.419 1030.87,778.585 1011,805.5C 986.239,836.642 957.739,863.976 925.5,887.5 Z"/></g>
<g><path style="opacity:1" fill="#7ebb59" d="M 707.5,139.5 C 706.448,139.351 705.448,139.517 704.5,140C 696.292,150.717 685.958,158.551 673.5,163.5C 668.123,159.113 662.79,154.78 657.5,150.5C 664.176,143.66 671.343,137.327 679,131.5C 679.986,129.075 679.319,127.409 677,126.5C 665.663,133.827 655.496,142.66 646.5,153C 634.166,152.39 623.166,155.89 613.5,163.5C 604.067,156.44 593.401,152.94 581.5,153C 572.555,142.719 562.388,133.885 551,126.5C 548.681,127.409 548.014,129.075 549,131.5C 556.992,137.661 564.492,144.327 571.5,151.5C 564.831,152.338 559.497,155.504 555.5,161C 540.632,159.977 529.132,153.144 521,140.5C 520.601,140.728 520.435,141.062 520.5,141.5C 517.494,126.006 522.827,114.172 536.5,106C 546.335,101.733 556.335,101.399 566.5,105C 590.7,116.019 606.367,134.185 613.5,159.5C 619.027,140.748 629.694,125.248 645.5,113C 658.556,103.324 672.889,100.658 688.5,105C 702.502,112.163 708.835,123.663 707.5,139.5 Z"/></g>
<g><path style="opacity:1" fill="#61a639" d="M 707.5,139.5 C 702.605,162.399 688.939,177.399 666.5,184.5C 667.022,181.432 667.855,178.432 669,175.5C 669.451,164.575 664.284,157.408 653.5,154C 654.705,152.624 656.038,151.458 657.5,150.5C 662.79,154.78 668.123,159.113 673.5,163.5C 685.958,158.551 696.292,150.717 704.5,140C 705.448,139.517 706.448,139.351 707.5,139.5 Z"/></g>
<g><path style="opacity:1" fill="#61a639" d="M 571.5,151.5 C 572.627,152.122 573.627,152.955 574.5,154C 558.502,158.822 554.169,168.655 561.5,183.5C 560.833,183.833 560.167,184.167 559.5,184.5C 543.395,178.712 531.228,168.379 523,153.5C 522.055,149.506 521.222,145.506 520.5,141.5C 520.435,141.062 520.601,140.728 521,140.5C 529.132,153.144 540.632,159.977 555.5,161C 559.497,155.504 564.831,152.338 571.5,151.5 Z"/></g>
<g><path style="opacity:1" fill="#f39a73" d="M 766.5,209.5 C 766.33,210.822 766.663,211.989 767.5,213C 822.175,239.997 866.675,278.831 901,329.5C 910.441,343.88 917.275,359.38 921.5,376C 922.448,376.483 923.448,376.649 924.5,376.5C 925.688,377.684 926.855,377.684 928,376.5C 933.728,368.435 939.061,360.101 944,351.5C 944.667,350.167 945.333,350.167 946,351.5C 973.658,402.469 992.991,456.469 1004,513.5C 1011.11,554.486 1011.28,595.486 1004.5,636.5C 994.481,635.084 984.481,635.251 974.5,637C 968.884,640.141 962.884,642.141 956.5,643C 931.155,656.171 908.155,672.671 887.5,692.5C 886.325,692.719 885.325,692.386 884.5,691.5C 885.127,690.583 885.461,689.583 885.5,688.5C 894.354,674.798 902.187,660.465 909,645.5C 910.531,638.409 912.364,631.409 914.5,624.5C 915.008,620.803 915.674,617.136 916.5,613.5C 918.011,610.456 918.678,607.122 918.5,603.5C 920.032,578.956 919.365,554.623 916.5,530.5C 916.638,525.586 915.972,520.919 914.5,516.5C 912.067,502.5 909.567,488.5 907,474.5C 892.951,408.738 864.284,350.405 821,299.5C 772.864,245.177 712.697,213.011 640.5,203C 646.5,199 652.5,195 658.5,191C 664.044,189.017 669.711,187.35 675.5,186C 690,178.167 701.167,167 709,152.5C 709.804,151.196 710.971,150.529 712.5,150.5C 727.355,155.507 742.022,161.007 756.5,167C 768.863,172.597 780.697,179.097 792,186.5C 792.089,188.113 791.255,189.28 789.5,190C 782.228,194.274 775.228,198.941 768.5,204C 766.845,205.444 766.178,207.278 766.5,209.5 Z"/></g>
<g><path style="opacity:1" fill="#d28b4d" d="M 913.5,616.5 C 904.308,657.398 883.974,691.565 852.5,719C 833.929,731.785 814.596,743.285 794.5,753.5C 783.624,758.849 772.457,763.849 761,768.5C 709.795,784.88 657.295,792.214 603.5,790.5C 588.998,789.309 574.332,788.309 559.5,787.5C 538.292,786.215 517.292,783.381 496.5,779C 481.362,774.965 466.362,770.465 451.5,765.5C 346.142,730.516 297.308,657.183 305,545.5C 307.586,517.405 312.42,489.739 319.5,462.5C 321.483,459.201 322.483,455.534 322.5,451.5C 332.728,410.51 349.894,372.843 374,338.5C 379.761,331.286 385.261,323.953 390.5,316.5C 405.581,299.253 421.915,283.086 439.5,268C 481.96,233.114 530.626,212.447 585.5,206C 587.211,204.867 587.711,203.367 587,201.5C 581.262,195.092 574.929,189.425 568,184.5C 559.781,172.54 562.281,164.04 575.5,159C 584.404,157.922 593.071,158.922 601.5,162C 605.41,164.763 609.41,167.263 613.5,169.5C 614.5,169.333 615.5,169.167 616.5,169C 621.547,163.309 627.88,159.976 635.5,159C 646.123,156.472 655.29,158.972 663,166.5C 663.977,171.734 663.31,176.734 661,181.5C 653.776,190.031 645.276,197.031 635.5,202.5C 634.246,204.259 634.579,205.759 636.5,207C 647.602,207.491 658.602,208.824 669.5,211C 714.778,222.47 755.111,243.137 790.5,273C 834.055,313.58 866.555,361.746 888,417.5C 899.16,452.141 907.493,487.475 913,523.5C 917.284,554.512 917.45,585.512 913.5,616.5 Z"/></g>
<g><path style="opacity:1" fill="#f29a73" d="M 390.5,313.5 C 369.606,337.585 352.439,364.252 339,393.5C 332.609,410.003 326.609,426.67 321,443.5C 312.827,473.037 306.827,503.037 303,533.5C 297.871,575.342 302.538,616.009 317,655.5C 343.724,712.777 387.557,749.777 448.5,766.5C 474.395,777.251 501.395,784.251 529.5,787.5C 533.567,789.054 537.9,789.72 542.5,789.5C 542.833,789.5 543.167,789.5 543.5,789.5C 551.478,795.539 551.478,801.706 543.5,808C 537.448,810.687 531.781,813.854 526.5,817.5C 526.389,818.117 526.056,818.617 525.5,819C 467.34,815.501 412.006,801.167 359.5,776C 323.71,759.178 292.21,736.345 265,707.5C 251.03,690.234 240.697,670.9 234,649.5C 222.545,610.918 218.878,571.584 223,531.5C 230.72,465.676 249.72,403.343 280,344.5C 284.667,353.167 289.333,361.833 294,370.5C 295.331,372.996 297.164,374.996 299.5,376.5C 301.198,379.124 303.031,379.124 305,376.5C 314.895,349.362 328.895,324.695 347,302.5C 369.719,274.777 395.886,250.943 425.5,231C 431.675,227.412 438.009,224.078 444.5,221C 451.15,219.012 457.817,217.012 464.5,215C 465.943,211.939 465.276,209.439 462.5,207.5C 455.905,202.526 448.905,198.026 441.5,194C 440.167,193 440.167,192 441.5,191C 465.295,176.028 491.128,166.194 519,161.5C 525.698,166.186 531.865,171.686 537.5,178C 546.045,185.605 556.045,189.271 567.5,189C 571.859,194.022 576.859,198.355 582.5,202C 503.953,214.753 439.953,251.919 390.5,313.5 Z"/></g>
<g><path style="opacity:1" fill="#d08a4d" d="M 396.5,220.5 C 391.42,218.985 386.086,218.318 380.5,218.5C 374.591,218.349 368.925,219.016 363.5,220.5C 332.711,227.792 314.878,247.125 310,278.5C 308.24,297.458 309.74,316.125 314.5,334.5C 310.892,341.617 307.892,348.951 305.5,356.5C 303.031,359.236 302.031,362.236 302.5,365.5C 302.313,367.564 301.813,369.564 301,371.5C 289.62,355.196 282.453,337.196 279.5,317.5C 279.5,305.167 279.5,292.833 279.5,280.5C 287.192,236.312 311.525,205.145 352.5,187C 390.854,174.804 425.187,181.804 455.5,208C 444.404,214.215 433.071,219.881 421.5,225C 413.194,223.678 404.861,222.178 396.5,220.5 Z"/></g>
<g><path style="opacity:1" fill="#d08a4d" d="M 946.5,274.5 C 948.136,286.764 948.803,299.097 948.5,311.5C 946.853,332.101 940.02,350.768 928,367.5C 924.703,355.951 920.037,344.951 914,334.5C 913.905,329.464 914.405,324.464 915.5,319.5C 917.117,315.46 917.95,311.127 918,306.5C 918.822,298.988 918.655,291.655 917.5,284.5C 914.068,247.066 893.735,225.399 856.5,219.5C 853.183,218.835 849.683,218.501 846,218.5C 840.257,218.358 834.757,219.025 829.5,220.5C 822.244,221.064 815.244,222.731 808.5,225.5C 797.049,218.441 785.049,212.441 772.5,207.5C 790.862,190.412 812.695,181.412 838,180.5C 885.257,183.778 918.923,206.778 939,249.5C 942.095,257.68 944.595,266.013 946.5,274.5 Z"/></g>
<g><path style="opacity:1" fill="#e5795d" d="M 462.5,207.5 C 465.276,209.439 465.943,211.939 464.5,215C 457.817,217.012 451.15,219.012 444.5,221C 438.009,224.078 431.675,227.412 425.5,231C 395.886,250.943 369.719,274.777 347,302.5C 328.895,324.695 314.895,349.362 305,376.5C 303.031,379.124 301.198,379.124 299.5,376.5C 301.708,375.977 303.208,374.644 304,372.5C 311.948,345.595 324.615,321.261 342,299.5C 372.537,257.478 412.37,227.978 461.5,211C 462.337,209.989 462.67,208.822 462.5,207.5 Z"/></g>
<g><path style="opacity:1" fill="#e6795d" d="M 766.5,209.5 C 772.577,211.368 778.577,213.535 784.5,216C 828.983,239.139 866.149,270.972 896,311.5C 907.551,327.077 916.551,344.077 923,362.5C 923.562,364.866 923.396,367.199 922.5,369.5C 923.467,371.762 924.134,374.095 924.5,376.5C 923.448,376.649 922.448,376.483 921.5,376C 917.275,359.38 910.441,343.88 901,329.5C 866.675,278.831 822.175,239.997 767.5,213C 766.663,211.989 766.33,210.822 766.5,209.5 Z"/></g>
<g><path style="opacity:1" fill="#684526" d="M 396.5,220.5 C 385.502,219.2 374.502,219.2 363.5,220.5C 368.925,219.016 374.591,218.349 380.5,218.5C 386.086,218.318 391.42,218.985 396.5,220.5 Z"/></g>
<g><path style="opacity:1" fill="#6a4627" d="M 856.5,219.5 C 847.479,219.401 838.479,219.734 829.5,220.5C 834.757,219.025 840.257,218.358 846,218.5C 849.683,218.501 853.183,218.835 856.5,219.5 Z"/></g>
<g><path style="opacity:1" fill="#b55b2f" d="M 367.5,224.5 C 382.835,223.378 397.835,225.045 412.5,229.5C 373.304,254.695 341.97,287.362 318.5,327.5C 313.053,306.421 313.22,285.421 319,264.5C 327.852,242.136 344.019,228.803 367.5,224.5 Z"/></g>
<g><path style="opacity:1" fill="#b55b2f" d="M 834.5,224.5 C 855.997,222.062 875.33,227.229 892.5,240C 904.285,252.074 910.785,266.574 912,283.5C 913.207,297.667 912.207,311.667 909,325.5C 884.757,287.256 853.757,255.59 816,230.5C 815.383,229.551 815.549,228.718 816.5,228C 822.691,227.112 828.691,225.945 834.5,224.5 Z"/></g>
<g><path style="opacity:1" fill="#a16a3b" d="M 279.5,280.5 C 279.5,292.833 279.5,305.167 279.5,317.5C 276.866,305.169 276.866,292.836 279.5,280.5 Z"/></g>
<g><path style="opacity:1" fill="#734c2a" d="M 917.5,284.5 C 918.655,291.655 918.822,298.988 918,306.5C 917.95,311.127 917.117,315.46 915.5,319.5C 917.053,307.892 917.719,296.226 917.5,284.5 Z"/></g>
<g><path style="opacity:1" fill="#754e2b" d="M 946.5,274.5 C 947.832,278.264 948.665,282.264 949,286.5C 949.823,295.01 949.657,303.344 948.5,311.5C 948.803,299.097 948.136,286.764 946.5,274.5 Z"/></g>
<g><path style="opacity:1" fill="#160f0a" d="M 390.5,313.5 C 390.5,314.5 390.5,315.5 390.5,316.5C 385.261,323.953 379.761,331.286 374,338.5C 349.894,372.843 332.728,410.51 322.5,451.5C 320.742,454.854 319.742,458.521 319.5,462.5C 312.42,489.739 307.586,517.405 305,545.5C 297.308,657.183 346.142,730.516 451.5,765.5C 450.209,765.263 449.209,765.596 448.5,766.5C 387.557,749.777 343.724,712.777 317,655.5C 302.538,616.009 297.871,575.342 303,533.5C 306.827,503.037 312.827,473.037 321,443.5C 326.609,426.67 332.609,410.003 339,393.5C 352.439,364.252 369.606,337.585 390.5,313.5 Z"/></g>
<g><path style="opacity:1" fill="#73422d" d="M 305.5,356.5 C 305.072,359.785 304.072,362.785 302.5,365.5C 302.031,362.236 303.031,359.236 305.5,356.5 Z"/></g>
<g><path style="opacity:0.996" fill="#120a05" d="M 466.5,394.5 C 485.276,393.688 503.609,396.188 521.5,402C 527.752,404.713 533.252,408.546 538,413.5C 540.269,417.714 539.769,421.547 536.5,425C 526.376,431.113 515.376,433.613 503.5,432.5C 487.928,432.69 472.928,429.857 458.5,424C 453.884,421.44 449.718,418.273 446,414.5C 442.446,406.357 444.946,400.857 453.5,398C 457.848,396.417 462.182,395.251 466.5,394.5 Z"/></g>
<g><path style="opacity:0.996" fill="#100904" d="M 737.5,394.5 C 751.82,392.932 765.487,395.099 778.5,401C 782.059,403.28 783.559,406.447 783,410.5C 779.777,416.723 774.943,421.223 768.5,424C 747.14,432.401 725.14,434.734 702.5,431C 683.729,424.373 682.729,415.706 699.5,405C 703.048,403.059 706.714,401.393 710.5,400C 719.546,397.739 728.546,395.906 737.5,394.5 Z"/></g>
<g><path style="opacity:1" fill="#b45b2f" d="M 461.5,400.5 C 484.612,397.575 506.612,401.075 527.5,411C 529.017,412.685 530.684,414.185 532.5,415.5C 534.22,419.648 532.887,422.481 528.5,424C 503.702,429.838 479.702,427.505 456.5,417C 451.718,414.927 449.551,411.427 450,406.5C 453.575,403.798 457.408,401.798 461.5,400.5 Z"/></g>
<g><path style="opacity:1" fill="#b45b2f" d="M 760.5,400.5 C 766.585,400.962 772.085,402.962 777,406.5C 778.176,410.26 777.01,413.093 773.5,415C 751.329,425.806 727.996,429.473 703.5,426C 699.793,425.064 696.626,423.231 694,420.5C 693.333,418.833 693.333,417.167 694,415.5C 702.808,408.169 712.975,403.836 724.5,402.5C 736.431,400.88 748.431,400.213 760.5,400.5 Z"/></g>
<g><path style="opacity:1" fill="#783c1f" d="M 760.5,400.5 C 748.431,400.213 736.431,400.88 724.5,402.5C 727.903,401.075 731.57,400.242 735.5,400C 744.01,399.177 752.344,399.343 760.5,400.5 Z"/></g>
<g><path style="opacity:1" fill="#7f542f" d="M 322.5,451.5 C 322.483,455.534 321.483,459.201 319.5,462.5C 319.742,458.521 320.742,454.854 322.5,451.5 Z"/></g>
<g><path style="opacity:1" fill="#020100" d="M 500.5,486.5 C 526.174,485.583 544.007,496.916 554,520.5C 558.724,539.911 554.224,556.744 540.5,571C 538.5,571.667 536.5,571.667 534.5,571C 513.891,563.539 493.058,562.705 472,568.5C 465.102,562.048 460.769,554.048 459,544.5C 456.031,512.99 469.864,493.657 500.5,486.5 Z"/></g>
<g><path style="opacity:1" fill="#020100" d="M 711.5,486.5 C 738.3,484.476 756.8,495.809 767,520.5C 769.99,534.066 768.49,547.066 762.5,559.5C 736.418,556.264 711.418,560.264 687.5,571.5C 672.481,556.594 667.981,538.928 674,518.5C 681.244,501.405 693.744,490.738 711.5,486.5 Z"/></g>
<g><path style="opacity:1" fill="#5c3a2b" d="M 914.5,516.5 C 915.972,520.919 916.638,525.586 916.5,530.5C 915.199,526.057 914.532,521.391 914.5,516.5 Z"/></g>
<g><path style="opacity:0.999" fill="#0f0704" d="M 629.5,677.5 C 632.356,679.006 635.523,679.672 639,679.5C 641.361,679.496 643.527,679.163 645.5,678.5C 651.128,677.008 656.461,675.008 661.5,672.5C 661.739,674.467 661.406,676.301 660.5,678C 656.286,680.274 651.953,682.274 647.5,684C 636.24,699.201 621.24,705.201 602.5,702C 592.915,699.247 585.915,693.413 581.5,684.5C 576.726,682.964 572.06,681.13 567.5,679C 563.657,676.462 563.657,674.295 567.5,672.5C 570.54,674.687 573.873,676.353 577.5,677.5C 580.526,679.019 583.859,679.685 587.5,679.5C 590.025,679.497 592.359,679.163 594.5,678.5C 602.075,676.76 606.908,672.093 609,664.5C 610.394,652.22 610.894,639.886 610.5,627.5C 595.372,623.27 584.038,614.27 576.5,600.5C 576.523,596.156 578.19,592.656 581.5,590C 603.345,578.372 625.011,578.705 646.5,591C 650.277,593.955 651.443,597.788 650,602.5C 641.665,614.507 630.665,623.173 617,628.5C 616.192,640.535 616.525,652.535 618,664.5C 619.551,670.988 623.385,675.321 629.5,677.5 Z"/></g>
<g><path style="opacity:1" fill="#d05a44" d="M 603.5,586.5 C 612.938,586.173 622.271,587.006 631.5,589C 636.16,590.995 640.494,593.495 644.5,596.5C 645.614,597.723 645.781,599.056 645,600.5C 637.265,612.357 626.598,620.024 613,623.5C 599.116,619.114 588.282,610.78 580.5,598.5C 587.243,592.629 594.91,588.629 603.5,586.5 Z"/></g>
<g><path style="opacity:0.999" fill="#0f0a05" d="M 429.5,599.5 C 431.017,599.511 432.184,600.177 433,601.5C 434.579,607.736 435.412,614.07 435.5,620.5C 433.549,620.773 432.049,620.107 431,618.5C 430.405,613.623 429.572,608.789 428.5,604C 428.605,602.408 428.939,600.908 429.5,599.5 Z"/></g>
<g><path style="opacity:0.999" fill="#150e07" d="M 793.5,600.5 C 795.167,600.5 796.833,600.5 798.5,600.5C 798.314,606.581 797.481,612.581 796,618.5C 794.951,620.107 793.451,620.773 791.5,620.5C 791.698,613.782 792.365,607.115 793.5,600.5 Z"/></g>
<g><path style="opacity:0.997" fill="#150e07" d="M 455.5,601.5 C 458.238,600.965 460.072,601.965 461,604.5C 462.705,610.615 464.205,616.781 465.5,623C 465.3,626.285 463.8,627.118 461,625.5C 458.842,617.539 457.009,609.539 455.5,601.5 Z"/></g>
<g><path style="opacity:0.998" fill="#110b06" d="M 767.5,601.5 C 769.635,601.147 770.968,601.98 771.5,604C 769.446,610.715 767.946,617.548 767,624.5C 763.811,627.493 761.978,626.826 761.5,622.5C 763.512,615.468 765.512,608.468 767.5,601.5 Z"/></g>
<g><path style="opacity:0.998" fill="#100a05" d="M 480.5,604.5 C 482.144,604.286 483.644,604.62 485,605.5C 488.29,616.325 490.79,627.325 492.5,638.5C 490.549,638.773 489.049,638.107 488,636.5C 484.416,626.077 481.916,615.41 480.5,604.5 Z"/></g>
<g><path style="opacity:0.997" fill="#110b06" d="M 742.5,604.5 C 743.833,604.5 745.167,604.5 746.5,604.5C 744.858,615.684 742.358,626.684 739,637.5C 737.644,638.38 736.144,638.714 734.5,638.5C 735.912,626.851 738.579,615.518 742.5,604.5 Z"/></g>
<g><path style="opacity:1" fill="#724836" d="M 918.5,603.5 C 918.678,607.122 918.011,610.456 916.5,613.5C 916.549,609.922 917.215,606.589 918.5,603.5 Z"/></g>
<g><path style="opacity:1" fill="#d18b4d" d="M 926.5,875.5 C 929.015,839.677 914.349,813.844 882.5,798C 872.827,794.168 863.161,790.668 853.5,787.5C 854.496,787.586 855.329,787.252 856,786.5C 860.936,751.292 875.27,720.626 899,694.5C 900.559,692.783 901.392,690.783 901.5,688.5C 908.388,681.114 916.055,674.614 924.5,669C 939.793,657.687 956.459,649.02 974.5,643C 982.792,641.595 991.125,641.262 999.5,642C 1022.06,650.221 1035.56,666.055 1040,689.5C 1041.57,712.432 1038.4,734.598 1030.5,756C 1026.17,765.355 1021.34,774.521 1016,783.5C 992.01,819.988 962.177,850.655 926.5,875.5 Z"/></g>
<g><path style="opacity:1" fill="#170f08" d="M 997.5,661.5 C 998.822,661.33 999.989,661.663 1001,662.5C 1002.84,667.011 1004.17,671.677 1005,676.5C 1005.52,677.516 1006.35,678.182 1007.5,678.5C 1011,676.582 1014.34,674.416 1017.5,672C 1022.17,671 1023.5,672.667 1021.5,677C 1017.09,679.07 1012.92,681.57 1009,684.5C 1008.84,687.72 1009.34,690.887 1010.5,694C 1009.69,697.935 1007.86,698.435 1005,695.5C 1004.84,692.822 1003.51,691.155 1001,690.5C 996.909,692.128 993.076,694.128 989.5,696.5C 987.734,696.566 986.734,695.732 986.5,694C 989.493,689.657 993.493,686.49 998.5,684.5C 998.833,683 999.167,681.5 999.5,680C 998.506,675.013 997.506,670.013 996.5,665C 996.648,663.744 996.982,662.577 997.5,661.5 Z"/></g>
<g><path style="opacity:1" fill="#ce5943" d="M 610.5,667.5 C 611.833,667.5 613.167,667.5 614.5,667.5C 615.741,673.914 619.408,678.414 625.5,681C 630.277,682.98 635.277,683.98 640.5,684C 627.528,696.582 612.862,699.249 596.5,692C 593.167,690 590.5,687.333 588.5,684C 596.182,683.637 602.682,680.803 608,675.5C 609.707,673.091 610.54,670.425 610.5,667.5 Z"/></g>
<g><path style="opacity:1" fill="#694627" d="M 577.5,677.5 C 583.13,678.292 588.797,678.625 594.5,678.5C 592.359,679.163 590.025,679.497 587.5,679.5C 583.859,679.685 580.526,679.019 577.5,677.5 Z"/></g>
<g><path style="opacity:1" fill="#714b2a" d="M 629.5,677.5 C 634.797,678.275 640.13,678.608 645.5,678.5C 643.527,679.163 641.361,679.496 639,679.5C 635.523,679.672 632.356,679.006 629.5,677.5 Z"/></g>
<g><path style="opacity:1" fill="#c46b38" d="M 901.5,688.5 C 901.392,690.783 900.559,692.783 899,694.5C 875.27,720.626 860.936,751.292 856,786.5C 855.329,787.252 854.496,787.586 853.5,787.5C 841.12,785.019 828.787,783.019 816.5,781.5C 818.811,778.337 820.978,775.003 823,771.5C 833.667,758.833 844.333,746.167 855,733.5C 869.424,717.24 884.924,702.24 901.5,688.5 Z"/></g>
<g><path style="opacity:1" fill="#ba7658" d="M 885.5,688.5 C 885.461,689.583 885.127,690.583 884.5,691.5C 885.325,692.386 886.325,692.719 887.5,692.5C 877.167,702.167 867.167,712.167 857.5,722.5C 857.5,721.167 856.833,720.5 855.5,720.5C 860.688,715.967 865.855,711.301 871,706.5C 875.697,700.312 880.531,694.312 885.5,688.5 Z"/></g>
<g><path style="opacity:1" fill="#ef9771" d="M 855.5,720.5 C 856.833,720.5 857.5,721.167 857.5,722.5C 841.626,740.208 826.293,758.374 811.5,777C 807.654,777.013 804.321,778.18 801.5,780.5C 789.495,780.333 777.495,780.5 765.5,781C 764.333,782.167 763.167,783.333 762,784.5C 761.5,792.827 761.334,801.16 761.5,809.5C 760.522,809.811 759.855,810.478 759.5,811.5C 743.589,813.761 727.589,815.094 711.5,815.5C 710.262,809.752 706.929,805.585 701.5,803C 697.5,800 697.5,797 701.5,794C 705.014,793.169 708.181,791.669 711,789.5C 711.765,787.934 711.598,786.601 710.5,785.5C 742.727,779.033 773.394,768.033 802.5,752.5C 820.997,743.09 838.664,732.423 855.5,720.5 Z"/></g>
<g><path style="opacity:1" fill="#20160f" d="M 913.5,616.5 C 913.489,618.547 913.156,620.547 912.5,622.5C 912.747,623.713 913.414,624.38 914.5,624.5C 912.364,631.409 910.531,638.409 909,645.5C 902.187,660.465 894.354,674.798 885.5,688.5C 880.531,694.312 875.697,700.312 871,706.5C 865.855,711.301 860.688,715.967 855.5,720.5C 838.664,732.423 820.997,743.09 802.5,752.5C 802.44,751.957 802.107,751.624 801.5,751.5C 799.382,752.946 797.049,753.613 794.5,753.5C 814.596,743.285 833.929,731.785 852.5,719C 883.974,691.565 904.308,657.398 913.5,616.5 Z"/></g>
<g><path style="opacity:0.993" fill="#4aaf4e" d="M 188.5,923.5 C 178.377,905.186 166.044,888.353 151.5,873C 140.349,862.846 128.349,853.846 115.5,846C 111.328,845.132 108.162,846.632 106,850.5C 105.333,852.833 105.333,855.167 106,857.5C 114.382,864.938 123.215,871.771 132.5,878C 150.495,893.877 164.162,912.711 173.5,934.5C 149.564,946.556 124.564,948.723 98.5,941C 76.8691,932.035 62.0357,916.535 54,894.5C 41.8056,858.551 37.1389,821.551 40,783.5C 41.1667,782.333 42.3333,781.167 43.5,780C 83.8677,776.843 122.868,782.51 160.5,797C 190.734,811.777 205.734,836.111 205.5,870C 205.271,889.737 199.604,907.571 188.5,923.5 Z"/></g>
<g><path style="opacity:0.999" fill="#4baf4f" d="M 801.5,780.5 C 806.473,781.164 811.473,781.497 816.5,781.5C 828.787,783.019 841.12,785.019 853.5,787.5C 863.161,790.668 872.827,794.168 882.5,798C 914.349,813.844 929.015,839.677 926.5,875.5C 925.64,879.434 925.307,883.434 925.5,887.5C 923.508,900.857 918.508,912.857 910.5,923.5C 900.377,905.186 888.044,888.353 873.5,873C 862.349,862.846 850.349,853.846 837.5,846C 833.328,845.132 830.162,846.632 828,850.5C 827.333,852.833 827.333,855.167 828,857.5C 836.382,864.938 845.215,871.771 854.5,878C 872.495,893.877 886.162,912.711 895.5,934.5C 885.742,940.281 875.076,943.614 863.5,944.5C 862.167,944.5 860.833,944.5 859.5,944.5C 837.526,946.983 817.859,941.65 800.5,928.5C 799.833,928.167 799.167,927.833 798.5,927.5C 786.674,914.861 778.174,900.194 773,883.5C 766.359,861.32 762.859,838.654 762.5,815.5C 762.795,813.265 762.461,811.265 761.5,809.5C 761.334,801.16 761.5,792.827 762,784.5C 763.167,783.333 764.333,782.167 765.5,781C 777.495,780.5 789.495,780.333 801.5,780.5 Z"/></g>
<g><path style="opacity:0.997" fill="#fdc3a9" d="M 364.5,782.5 C 376.031,787.429 387.697,792.096 399.5,796.5C 395.319,816.403 391.653,836.403 388.5,856.5C 385.358,856.799 383.191,858.466 382,861.5C 380.746,868.465 380.413,875.465 381,882.5C 382.698,883.529 383.532,885.029 383.5,887C 381.897,894.514 380.23,902.014 378.5,909.5C 375.841,912.329 373.341,915.329 371,918.5C 369.306,933.915 367.139,949.249 364.5,964.5C 363.957,964.56 363.624,964.893 363.5,965.5C 363.846,966.696 364.346,966.696 365,965.5C 365.086,969.829 364.752,974.163 364,978.5C 362.644,979.38 361.144,979.714 359.5,979.5C 357.883,978.962 356.216,978.629 354.5,978.5C 330.116,968.524 309.949,952.858 294,931.5C 290.775,925.607 288.942,919.273 288.5,912.5C 289.272,908.25 289.772,903.917 290,899.5C 291.664,896.673 292.83,893.673 293.5,890.5C 300.254,880.666 306.254,870.333 311.5,859.5C 313.95,857.371 315.617,854.704 316.5,851.5C 320.231,848.298 322.564,844.631 323.5,840.5C 330.842,832.812 337.509,824.478 343.5,815.5C 343.137,814.817 342.804,814.15 342.5,813.5C 349.064,802.606 356.397,792.272 364.5,782.5 Z"/></g>
<g><path style="opacity:1" fill="#e5785d" d="M 710.5,785.5 C 711.598,786.601 711.765,787.934 711,789.5C 708.181,791.669 705.014,793.169 701.5,794C 697.5,797 697.5,800 701.5,803C 706.929,805.585 710.262,809.752 711.5,815.5C 710.448,815.649 709.448,815.483 708.5,815C 694.561,804.697 679.228,797.031 662.5,792C 678.525,789.973 694.525,787.806 710.5,785.5 Z"/></g>
<g><path style="opacity:1" fill="#965f47" d="M 529.5,787.5 C 534.049,787.624 538.382,788.291 542.5,789.5C 537.9,789.72 533.567,789.054 529.5,787.5 Z"/></g>
<g><path style="opacity:1" fill="#4b321c" d="M 559.5,787.5 C 574.332,788.309 588.998,789.309 603.5,790.5C 588.602,790.712 573.935,789.712 559.5,787.5 Z"/></g>
<g><path style="opacity:1" fill="#e1775c" d="M 543.5,789.5 C 562.973,790.957 582.306,792.291 601.5,793.5C 586.019,794.437 571.352,798.437 557.5,805.5C 547.155,809.503 536.821,813.503 526.5,817.5C 531.781,813.854 537.448,810.687 543.5,808C 551.478,801.706 551.478,795.539 543.5,789.5 Z"/></g>
<g><path style="opacity:1" fill="#f39a73" d="M 750.5,896.5 C 737.98,897.026 725.647,895.86 713.5,893C 669.204,876.703 637.037,847.203 617,804.5C 615.846,800.896 615.013,797.229 614.5,793.5C 628.174,793.194 641.841,793.027 655.5,793C 683.495,799.906 706.995,814.072 726,835.5C 740.813,853.131 748.98,873.465 750.5,896.5 Z"/></g>
<g><path style="opacity:1" fill="#f39a73" d="M 601.5,793.5 C 603.833,793.5 606.167,793.5 608.5,793.5C 608.41,799.763 609.076,805.93 610.5,812C 610.477,814.925 609.977,817.759 609,820.5C 601.692,834.478 591.526,845.978 578.5,855C 555.373,871.897 530.039,884.564 502.5,893C 494.271,894.961 485.937,896.128 477.5,896.5C 482.402,867.521 496.402,844.021 519.5,826C 532.589,819.815 545.255,812.982 557.5,805.5C 571.352,798.437 586.019,794.437 601.5,793.5 Z"/></g>
<g><path style="opacity:1" fill="#e6795d" d="M 608.5,793.5 C 610.5,793.5 612.5,793.5 614.5,793.5C 615.013,797.229 615.846,800.896 617,804.5C 637.037,847.203 669.204,876.703 713.5,893C 725.647,895.86 737.98,897.026 750.5,896.5C 751.451,897.919 751.784,899.585 751.5,901.5C 742.775,901.326 734.109,900.493 725.5,899C 676.183,890.126 640.683,863.293 619,818.5C 617.989,817.663 616.822,817.33 615.5,817.5C 611.883,827.625 606.383,836.625 599,844.5C 565.2,878.483 524.367,896.816 476.5,899.5C 477.127,898.583 477.461,897.583 477.5,896.5C 485.937,896.128 494.271,894.961 502.5,893C 530.039,884.564 555.373,871.897 578.5,855C 591.526,845.978 601.692,834.478 609,820.5C 609.977,817.759 610.477,814.925 610.5,812C 609.076,805.93 608.41,799.763 608.5,793.5 Z"/></g>
<g><path style="opacity:1" fill="#2c414c" d="M 446.5,810.5 C 446.737,811.791 446.404,812.791 445.5,813.5C 444.5,813.5 443.5,813.5 442.5,813.5C 427.929,811.442 414.262,806.775 401.5,799.5C 401.5,798.5 401.5,797.5 401.5,796.5C 407.34,798.082 413.007,800.248 418.5,803C 427.983,805.535 437.316,808.035 446.5,810.5 Z"/></g>
<g><path style="opacity:1" fill="#415e5d" d="M 401.5,799.5 C 414.262,806.775 427.929,811.442 442.5,813.5C 436.617,830.364 432.951,847.697 431.5,865.5C 418.264,863.608 405.264,860.608 392.5,856.5C 391.348,853.894 391.182,851.227 392,848.5C 395.363,832.183 398.53,815.85 401.5,799.5 Z"/></g>
<g><path style="opacity:1" fill="#fec3a9" d="M 446.5,810.5 C 470.26,816.071 494.26,820.238 518.5,823C 492.301,843.402 477.301,870.069 473.5,903C 503.341,902.205 531.341,894.539 557.5,880C 582.846,866.988 602.679,848.155 617,823.5C 647.009,876.774 692.842,903.774 754.5,904.5C 753.278,869.894 739.611,841.394 713.5,819C 729.978,817.537 746.311,816.371 762.5,815.5C 762.859,838.654 766.359,861.32 773,883.5C 778.174,900.194 786.674,914.861 798.5,927.5C 794.53,932.476 790.53,937.476 786.5,942.5C 785.833,942.5 785.5,942.833 785.5,943.5C 762.796,951.308 739.463,956.308 715.5,958.5C 708.083,959.613 700.75,960.613 693.5,961.5C 640.752,964.685 588.086,963.685 535.5,958.5C 505.308,954.177 475.641,947.177 446.5,937.5C 438.799,929.619 431.966,920.953 426,911.5C 426.379,906.873 426.879,902.207 427.5,897.5C 433.979,898.191 437.146,895.191 437,888.5C 437.667,882.833 437.667,877.167 437,871.5C 436.673,868.536 435.507,866.036 433.5,864C 436.169,846.826 440.169,829.993 445.5,813.5C 446.404,812.791 446.737,811.791 446.5,810.5 Z"/></g>
<g><path style="opacity:0.993" fill="#4aaf4e" d="M 978.5,960.5 C 984.824,947.406 993.491,935.906 1004.5,926C 1019.45,912.516 1036.12,901.516 1054.5,893C 1057.65,888.038 1056.98,883.705 1052.5,880C 1049.5,879.333 1046.5,879.333 1043.5,880C 1013.48,894.602 988.645,915.435 969,942.5C 968.329,943.252 967.496,943.586 966.5,943.5C 953.12,912.192 954.954,881.859 972,852.5C 986.651,836.614 1004.48,826.114 1025.5,821C 1055.76,814.071 1086.42,811.071 1117.5,812C 1119.59,812.792 1121.42,813.959 1123,815.5C 1125.12,845.86 1122.79,875.86 1116,905.5C 1101.72,964.405 1064.89,987.239 1005.5,974C 995.9,970.533 986.9,966.033 978.5,960.5 Z"/></g>
<g><path style="opacity:0.99" fill="#4baf4f" d="M 342.5,813.5 C 342.804,814.15 343.137,814.817 343.5,815.5C 337.509,824.478 330.842,832.812 323.5,840.5C 320.779,843.894 318.446,847.561 316.5,851.5C 314.05,853.629 312.383,856.296 311.5,859.5C 307.775,864.597 304.275,869.93 301,875.5C 297.962,880.243 295.462,885.243 293.5,890.5C 291.076,893.008 289.41,896.008 288.5,899.5C 287.599,900.29 286.932,901.29 286.5,902.5C 270.892,913.344 257.725,926.678 247,942.5C 246.329,943.252 245.496,943.586 244.5,943.5C 231.12,912.192 232.954,881.859 250,852.5C 264.651,836.614 282.485,826.114 303.5,821C 316.453,818.009 329.453,815.509 342.5,813.5 Z"/></g>
<g><path style="opacity:0.975" fill="#358d3a" d="M 188.5,923.5 C 200.423,950.729 209.09,979.062 214.5,1008.5C 221.062,985.054 231.062,963.387 244.5,943.5C 245.496,943.586 246.329,943.252 247,942.5C 257.725,926.678 270.892,913.344 286.5,902.5C 276.587,921.923 268.254,941.923 261.5,962.5C 260.2,961.892 258.867,961.225 257.5,960.5C 256.558,960.608 255.725,960.941 255,961.5C 237.581,991.76 226.914,1024.43 223,1059.5C 221.858,1074.49 220.858,1089.49 220,1104.5C 214.667,1111.17 209.333,1111.17 204,1104.5C 203.963,1067.12 200.297,1030.12 193,993.5C 188.314,973.239 181.814,953.572 173.5,934.5C 164.162,912.711 150.495,893.877 132.5,878C 123.215,871.771 114.382,864.938 106,857.5C 105.333,855.167 105.333,852.833 106,850.5C 108.162,846.632 111.328,845.132 115.5,846C 128.349,853.846 140.349,862.846 151.5,873C 166.044,888.353 178.377,905.186 188.5,923.5 Z"/></g>
<g><path style="opacity:0.978" fill="#358d3a" d="M 910.5,923.5 C 922.423,950.729 931.09,979.062 936.5,1008.5C 943.062,985.054 953.062,963.387 966.5,943.5C 967.496,943.586 968.329,943.252 969,942.5C 988.645,915.435 1013.48,894.602 1043.5,880C 1046.5,879.333 1049.5,879.333 1052.5,880C 1056.98,883.705 1057.65,888.038 1054.5,893C 1036.12,901.516 1019.45,912.516 1004.5,926C 993.491,935.906 984.824,947.406 978.5,960.5C 967.113,978.299 958.613,997.633 953,1018.5C 945.842,1046.69 942.175,1075.35 942,1104.5C 936.667,1111.17 931.333,1111.17 926,1104.5C 925.963,1067.12 922.297,1030.12 915,993.5C 910.314,973.239 903.814,953.572 895.5,934.5C 886.162,912.711 872.495,893.877 854.5,878C 845.215,871.771 836.382,864.938 828,857.5C 827.333,855.167 827.333,852.833 828,850.5C 830.162,846.632 833.328,845.132 837.5,846C 850.349,853.846 862.349,862.846 873.5,873C 888.044,888.353 900.377,905.186 910.5,923.5 Z"/></g>
<g><path style="opacity:1" fill="#554d3b" d="M 323.5,840.5 C 322.564,844.631 320.231,848.298 316.5,851.5C 318.446,847.561 320.779,843.894 323.5,840.5 Z"/></g>
<g><path style="opacity:1" fill="#564b3b" d="M 316.5,851.5 C 315.617,854.704 313.95,857.371 311.5,859.5C 312.383,856.296 314.05,853.629 316.5,851.5 Z"/></g>
<g><path style="opacity:1" fill="#2c454b" d="M 388.5,862.5 C 402.351,866.463 416.351,869.796 430.5,872.5C 432.069,878.279 431.736,883.946 429.5,889.5C 414.889,891.058 401.056,888.391 388,881.5C 387.347,875.138 387.513,868.805 388.5,862.5 Z"/></g>
<g><path style="opacity:1" fill="#413a2d" d="M 311.5,859.5 C 306.254,870.333 300.254,880.666 293.5,890.5C 295.462,885.243 297.962,880.243 301,875.5C 304.275,869.93 307.775,864.597 311.5,859.5 Z"/></g>
<g><path style="opacity:1" fill="#2d424c" d="M 424.5,901.5 C 416.579,902.597 408.913,901.431 401.5,898C 396.02,895.759 390.687,893.259 385.5,890.5C 385.5,889.5 385.5,888.5 385.5,887.5C 394.828,890.219 404.161,893.053 413.5,896C 417.466,896.828 421.466,897.328 425.5,897.5C 425.567,898.959 425.234,900.292 424.5,901.5 Z"/></g>
<g><path style="opacity:0.997" fill="#415e5d" d="M 385.5,890.5 C 390.687,893.259 396.02,895.759 401.5,898C 408.913,901.431 416.579,902.597 424.5,901.5C 423.669,905.476 423.503,909.476 424,913.5C 429.743,923.663 436.91,932.663 445.5,940.5C 454.953,945.714 464.953,949.881 475.5,953C 496.133,957.545 516.799,961.879 537.5,966C 564.797,970.647 592.297,972.814 620,972.5C 666.482,971.854 712.649,967.687 758.5,960C 769.158,958.114 779.158,954.447 788.5,949C 789.752,947.172 789.752,945.339 788.5,943.5C 793.229,939.102 797.229,934.102 800.5,928.5C 817.859,941.65 837.526,946.983 859.5,944.5C 863.697,970.012 868.864,995.346 875,1020.5C 877.987,1044.08 881.154,1067.58 884.5,1091C 877.12,1092.54 873.12,1097.04 872.5,1104.5C 708.334,1106.94 544.334,1109.61 380.5,1112.5C 367.833,1112.5 355.167,1112.5 342.5,1112.5C 343.089,1107.52 343.589,1102.52 344,1097.5C 351.908,1100.77 360.075,1101.44 368.5,1099.5C 369.645,1079.93 370.979,1060.43 372.5,1041C 366.361,1038.86 360.028,1037.69 353.5,1037.5C 356.356,1018.41 359.69,999.41 363.5,980.5C 362.167,980.5 360.833,980.5 359.5,980.5C 359.5,980.167 359.5,979.833 359.5,979.5C 361.144,979.714 362.644,979.38 364,978.5C 364.752,974.163 365.086,969.829 365,965.5C 364.346,966.696 363.846,966.696 363.5,965.5C 363.624,964.893 363.957,964.56 364.5,964.5C 369.753,950.077 372.919,935.077 374,919.5C 376,917.5 378,915.5 380,913.5C 381.681,905.779 383.514,898.112 385.5,890.5 Z"/></g>
<g><path style="opacity:0.913" fill="#050402" d="M 288.5,899.5 C 287.8,903.798 287.467,908.131 287.5,912.5C 274.551,939.515 265.718,967.848 261,997.5C 257.819,1023.16 260.486,1048.16 269,1072.5C 270.274,1075.39 271.774,1078.06 273.5,1080.5C 280.81,1096.48 292.81,1107.15 309.5,1112.5C 303.833,1112.5 298.167,1112.5 292.5,1112.5C 280.325,1104.49 271.159,1093.82 265,1080.5C 255.213,1056.42 251.546,1031.42 254,1005.5C 255.207,990.926 257.707,976.593 261.5,962.5C 268.254,941.923 276.587,921.923 286.5,902.5C 286.932,901.29 287.599,900.29 288.5,899.5 Z"/></g>
<g><path style="opacity:1" fill="#b38b77" d="M 293.5,890.5 C 292.83,893.673 291.664,896.673 290,899.5C 289.772,903.917 289.272,908.25 288.5,912.5C 288.167,912.5 287.833,912.5 287.5,912.5C 287.467,908.131 287.8,903.798 288.5,899.5C 289.41,896.008 291.076,893.008 293.5,890.5 Z"/></g>
<g><path style="opacity:1" fill="#d28b4e" d="M 287.5,912.5 C 287.833,912.5 288.167,912.5 288.5,912.5C 288.942,919.273 290.775,925.607 294,931.5C 309.949,952.858 330.116,968.524 354.5,978.5C 353.504,978.414 352.671,978.748 352,979.5C 342.189,1011.82 327.356,1041.49 307.5,1068.5C 306.373,1067.88 305.373,1067.04 304.5,1066C 302.075,1065.01 300.409,1065.68 299.5,1068C 300.741,1069.73 301.741,1071.56 302.5,1073.5C 294.305,1081.32 284.639,1083.65 273.5,1080.5C 271.774,1078.06 270.274,1075.39 269,1072.5C 260.486,1048.16 257.819,1023.16 261,997.5C 265.718,967.848 274.551,939.515 287.5,912.5 Z"/></g>
<g><path style="opacity:1" fill="#090908" d="M 798.5,927.5 C 799.167,927.833 799.833,928.167 800.5,928.5C 797.229,934.102 793.229,939.102 788.5,943.5C 787.508,943.672 786.842,943.338 786.5,942.5C 790.53,937.476 794.53,932.476 798.5,927.5 Z"/></g>
<g><path style="opacity:1" fill="#2d414c" d="M 446.5,937.5 C 475.641,947.177 505.308,954.177 535.5,958.5C 546.543,961.284 557.876,963.118 569.5,964C 599.817,966.52 630.15,966.853 660.5,965C 672.264,964.234 683.264,963.068 693.5,961.5C 700.75,960.613 708.083,959.613 715.5,958.5C 718.64,959.641 721.973,959.808 725.5,959C 742.056,956.683 758.389,953.35 774.5,949C 778.402,947.435 782.069,945.602 785.5,943.5C 785.5,942.833 785.833,942.5 786.5,942.5C 786.842,943.338 787.508,943.672 788.5,943.5C 789.752,945.339 789.752,947.172 788.5,949C 779.158,954.447 769.158,958.114 758.5,960C 712.649,967.687 666.482,971.854 620,972.5C 592.297,972.814 564.797,970.647 537.5,966C 516.799,961.879 496.133,957.545 475.5,953C 464.953,949.881 454.953,945.714 445.5,940.5C 445.263,939.209 445.596,938.209 446.5,937.5 Z"/></g>
<g><path style="opacity:0.885" fill="#010202" d="M 859.5,944.5 C 860.833,944.5 862.167,944.5 863.5,944.5C 867.785,969.988 872.952,995.321 879,1020.5C 881.727,1042.52 884.56,1064.52 887.5,1086.5C 887.025,1089.08 887.692,1091.08 889.5,1092.5C 896.148,1093.81 899.482,1097.81 899.5,1104.5C 898.5,1104.5 897.5,1104.5 896.5,1104.5C 896.739,1102.53 896.406,1100.7 895.5,1099C 892.141,1096.32 888.308,1094.82 884,1094.5C 877.963,1095.04 874.796,1098.37 874.5,1104.5C 873.833,1104.5 873.167,1104.5 872.5,1104.5C 873.12,1097.04 877.12,1092.54 884.5,1091C 881.154,1067.58 877.987,1044.08 875,1020.5C 868.864,995.346 863.697,970.012 859.5,944.5 Z"/></g>
<g><path style="opacity:1" fill="#0e1011" d="M 785.5,943.5 C 782.069,945.602 778.402,947.435 774.5,949C 758.389,953.35 742.056,956.683 725.5,959C 721.973,959.808 718.64,959.641 715.5,958.5C 739.463,956.308 762.796,951.308 785.5,943.5 Z"/></g>
<g><path style="opacity:1" fill="#0b0b0b" d="M 535.5,958.5 C 588.086,963.685 640.752,964.685 693.5,961.5C 683.264,963.068 672.264,964.234 660.5,965C 630.15,966.853 599.817,966.52 569.5,964C 557.876,963.118 546.543,961.284 535.5,958.5 Z"/></g>
<g><path style="opacity:0.999" fill="#c56b38" d="M 354.5,978.5 C 356.216,978.629 357.883,978.962 359.5,979.5C 359.5,979.833 359.5,980.167 359.5,980.5C 354.653,999.91 350.986,1019.58 348.5,1039.5C 345.911,1039.46 343.911,1040.46 342.5,1042.5C 341.25,1042.58 340.417,1043.24 340,1044.5C 331.944,1059.42 329.61,1075.09 333,1091.5C 334.981,1093.66 337.314,1095.32 340,1096.5C 340.169,1101.83 340.002,1107.16 339.5,1112.5C 329.5,1112.5 319.5,1112.5 309.5,1112.5C 292.81,1107.15 280.81,1096.48 273.5,1080.5C 284.639,1083.65 294.305,1081.32 302.5,1073.5C 304.926,1074.35 305.76,1076.02 305,1078.5C 302.089,1081.99 299.422,1085.66 297,1089.5C 295.746,1093.11 296.912,1094.61 300.5,1094C 304.05,1090.12 307.217,1085.95 310,1081.5C 313.247,1085.66 316.247,1089.99 319,1094.5C 323.656,1097.53 325.323,1096.2 324,1090.5C 320.5,1085.67 317,1080.83 313.5,1076C 316,1072.83 318.5,1069.67 321,1066.5C 322.301,1064.64 322.635,1062.64 322,1060.5C 320.951,1059.48 319.784,1059.32 318.5,1060C 315.833,1063.33 313.167,1066.67 310.5,1070C 309.002,1070.58 308.002,1070.08 307.5,1068.5C 327.356,1041.49 342.189,1011.82 352,979.5C 352.671,978.748 353.504,978.414 354.5,978.5 Z"/></g>
<g><path style="opacity:1" fill="#020404" d="M 504.5,980.5 C 580.196,982.922 655.863,986.089 731.5,990C 734.796,993.437 737.463,997.27 739.5,1001.5C 728.654,1044.84 702.321,1074 660.5,1089C 607.719,1099.96 563.219,1085.46 527,1045.5C 513.071,1030.16 502.571,1012.66 495.5,993C 498.341,988.668 501.341,984.501 504.5,980.5 Z"/></g>
<g><path style="opacity:0.998" fill="#080605" d="M 359.5,980.5 C 360.833,980.5 362.167,980.5 363.5,980.5C 359.69,999.41 356.356,1018.41 353.5,1037.5C 360.028,1037.69 366.361,1038.86 372.5,1041C 370.979,1060.43 369.645,1079.93 368.5,1099.5C 360.075,1101.44 351.908,1100.77 344,1097.5C 343.589,1102.52 343.089,1107.52 342.5,1112.5C 341.5,1112.5 340.5,1112.5 339.5,1112.5C 340.002,1107.16 340.169,1101.83 340,1096.5C 337.314,1095.32 334.981,1093.66 333,1091.5C 329.61,1075.09 331.944,1059.42 340,1044.5C 340.417,1043.24 341.25,1042.58 342.5,1042.5C 343.911,1040.46 345.911,1039.46 348.5,1039.5C 350.986,1019.58 354.653,999.91 359.5,980.5 Z"/></g>
<g><path style="opacity:1" fill="#2c464c" d="M 506.5,982.5 C 580.818,986.237 655.151,989.737 729.5,993C 732.14,995.783 734.14,998.95 735.5,1002.5C 723.257,1047.58 694.59,1076.08 649.5,1088C 616.527,1093.17 586.194,1086.51 558.5,1068C 531.498,1048.84 511.498,1024.01 498.5,993.5C 501.216,989.797 503.883,986.13 506.5,982.5 Z"/></g>
<g><path style="opacity:1" fill="#020404" d="M 513.5,986.5 C 583.856,989.039 654.19,991.706 724.5,994.5C 725.497,998.137 725.997,1001.8 726,1005.5C 705.905,1018.8 685.072,1030.97 663.5,1042C 650.591,1048.87 637.425,1055.04 624,1060.5C 586.112,1042.97 548.612,1024.47 511.5,1005C 510.707,1003.91 510.04,1002.75 509.5,1001.5C 511.617,996.697 512.95,991.697 513.5,986.5 Z"/></g>
<g><path style="opacity:1" fill="#415e5d" d="M 515.5,990.5 C 584.184,992.291 652.851,994.624 721.5,997.5C 722.167,999.5 722.833,1001.5 723.5,1003.5C 691.452,1023.44 658.286,1041.44 624,1057.5C 586.52,1039.18 549.353,1020.51 512.5,1001.5C 514.522,998.103 515.522,994.436 515.5,990.5 Z"/></g>
<g><path style="opacity:1" fill="#2c464c" d="M 342.5,1042.5 C 347.176,1041.97 351.843,1041.3 356.5,1040.5C 360.238,1040.8 363.905,1041.46 367.5,1042.5C 368,1043.5 368.5,1044.5 369,1045.5C 367.328,1062.74 366.161,1080.08 365.5,1097.5C 358.013,1097.94 350.68,1097.11 343.5,1095C 340.241,1093.79 337.408,1091.96 335,1089.5C 333.164,1082.18 333.164,1074.85 335,1067.5C 337.207,1059.05 339.707,1050.71 342.5,1042.5 Z"/></g>
<g><path style="opacity:1" fill="#0c0602" d="M 302.5,1073.5 C 301.741,1071.56 300.741,1069.73 299.5,1068C 300.409,1065.68 302.075,1065.01 304.5,1066C 305.373,1067.04 306.373,1067.88 307.5,1068.5C 308.002,1070.08 309.002,1070.58 310.5,1070C 313.167,1066.67 315.833,1063.33 318.5,1060C 319.784,1059.32 320.951,1059.48 322,1060.5C 322.635,1062.64 322.301,1064.64 321,1066.5C 318.5,1069.67 316,1072.83 313.5,1076C 317,1080.83 320.5,1085.67 324,1090.5C 325.323,1096.2 323.656,1097.53 319,1094.5C 316.247,1089.99 313.247,1085.66 310,1081.5C 307.217,1085.95 304.05,1090.12 300.5,1094C 296.912,1094.61 295.746,1093.11 297,1089.5C 299.422,1085.66 302.089,1081.99 305,1078.5C 305.76,1076.02 304.926,1074.35 302.5,1073.5 Z"/></g>
<g><path style="opacity:0.094" fill="#d68a4f" d="M 887.5,1086.5 C 888.458,1088.3 889.125,1090.3 889.5,1092.5C 887.692,1091.08 887.025,1089.08 887.5,1086.5 Z"/></g>
<g><path style="opacity:0.933" fill="#2c464c" d="M 896.5,1104.5 C 889.167,1104.5 881.833,1104.5 874.5,1104.5C 874.796,1098.37 877.963,1095.04 884,1094.5C 888.308,1094.82 892.141,1096.32 895.5,1099C 896.406,1100.7 896.739,1102.53 896.5,1104.5 Z"/></g>
</svg>
