<svg xmlns="http://www.w3.org/2000/svg" viewBox="0 0 312.53 383.1"><defs><style>.cls-1{fill:#f09a1f;}.cls-2{fill:#f4b457;}.cls-3{fill:#f3a636;}.cls-4{fill:#efc319;}.cls-5{fill:#efc31a;}.cls-6{fill:#e88823;}.cls-7{fill:#e47e25;}.cls-8{fill:#f19b1f;}</style></defs><title>Asset 1</title><g id="Layer_2" data-name="Layer 2"><g id="Layer_1-2" data-name="Layer 1"><path class="cls-1" d="M299.52,164.55c9.16,21.51,13.78,43.89,12.91,67.29q-2.42,65.4-50.37,110.09c-23.27,21.66-51,34.52-82.39,39.5-3.24.51-6.62.24-9.71,1.67h-4.5c-1.18-.78-2.5-.21-3.74-.39-1.25.18-2.57-.39-3.75.39h-3c-1.21-.78-2.56-.21-3.83-.39-1.47.2-3-.42-4.42.39h-4.5c-4.88-1.91-10.16-1.71-15.2-2.83-61-13.62-101.59-50-120.27-109.5-11.28-35.89-8-71.59,6.66-106.22a58.82,58.82,0,0,1,13.31-24.08A158.39,158.39,0,0,1,86.48,88c63.4-32.11,142.18-16.36,188.34,37.72,4.06,4.74,7.78,9.72,11.39,14.8,3.63,2.55,5.16,6.6,7.23,10.22C296,155.09,298.77,159.38,299.52,164.55Z"/><path class="cls-2" d="M146.72,383.1c1.3-1.43,3-.46,4.48-.73q.38.24.27.48c-.09.17-.17.25-.25.25Z"/><path class="cls-3" d="M151.22,383.1c0-.24,0-.48,0-.73,1.27.14,2.7-.51,3.77.73Z"/><path class="cls-3" d="M158,383.1c1.06-1.24,2.49-.59,3.77-.73.23.17.3.34.22.5s-.16.23-.25.23Z"/><path class="cls-2" d="M161.71,383.1c0-.24,0-.48,0-.73,1.25.2,2.69-.58,3.72.73Z"/><path class="cls-4" d="M26.72,140.47a180.93,180.93,0,0,0-13.31,24.08q0-43.74-.1-87.49,0-18.51,0-37c0-3.61,1.26-6.34,5-7.31a6.19,6.19,0,0,1,7.75,5,30.41,30.41,0,0,1,.16,4.48q0,47.12,0,94.22C26.29,137.81,25.83,139.22,26.72,140.47Z"/><path class="cls-4" d="M299.52,164.55a178.69,178.69,0,0,0-13.31-24.08c.89-1.24.43-2.66.44-4q0-47.12,0-94.23a37.54,37.54,0,0,1,.11-4.11,6.36,6.36,0,0,1,12.3-1.39,11.58,11.58,0,0,1,.52,3.66q0,61.52,0,123C299.61,163.81,299.55,164.18,299.52,164.55Z"/><path class="cls-4" d="M104.52,29.21c0-7.21,0-14.43,0-21.65C104.57,2.75,107,0,110.9,0s6.53,3,6.54,7.5q.06,21.66,0,43.32c0,4.6-2.59,7.51-6.49,7.54s-6.38-2.7-6.42-7.49C104.47,43.65,104.52,36.43,104.52,29.21Z"/><path class="cls-4" d="M208.42,29.56c0,7.09,0,14.19,0,21.28,0,4.8-2.42,7.52-6.39,7.52s-6.51-2.91-6.52-7.51q-.06-21.64,0-43.31C195.5,3,198.13,0,202,0s6.38,2.78,6.41,7.52C208.46,14.87,208.42,22.21,208.42,29.56Z"/><path class="cls-5" d="M149.87,25.87c0-6,0-12,0-17.94,0-4.93,2.54-7.9,6.53-7.93S163,3,163,7.85q.09,18.12,0,36.25c0,5-2.58,7.76-6.72,7.68-3.95-.07-6.36-2.82-6.43-7.6C149.81,38.08,149.87,32,149.87,25.87Z"/><path class="cls-4" d="M71.83,58.58c0,4.1.06,8.21,0,12.31-.08,4.36-2.68,7-6.58,6.94S59,75.15,59,71q-.12-12.5,0-25c0-4.2,2.87-7.12,6.58-7s6.2,2.93,6.27,7C71.88,50.12,71.83,54.35,71.83,58.58Z"/><path class="cls-4" d="M254,58.51c0,4.1.06,8.2,0,12.3-.07,4.37-2.64,7.07-6.51,7s-6.29-2.65-6.33-6.81q-.12-12.67,0-25.36a6.46,6.46,0,0,1,6.49-6.72c3.56.05,6.26,2.9,6.34,6.88C254.05,50.05,254,54.28,254,58.51Z"/><path class="cls-4" d="M71.8,12.64c0,2.37.12,4.74,0,7.1A6.39,6.39,0,0,1,59,19.62c-.15-4.47-.15-9,0-13.44A6.29,6.29,0,0,1,65.25,0a6.37,6.37,0,0,1,6.54,6.29C71.9,8.4,71.81,10.52,71.8,12.64Z"/><path class="cls-4" d="M241.15,12.93c0-2.37-.14-4.74,0-7.1A6.31,6.31,0,0,1,247.39,0a6.24,6.24,0,0,1,6.51,5.89c.2,4.73.2,9.47,0,14.19A6.36,6.36,0,0,1,247.7,26,6.47,6.47,0,0,1,241.18,20C241,17.67,241.15,15.29,241.15,12.93Z"/><path class="cls-4" d="M269,291.78c-2.11,5.24-5.62,9.62-9,14.05-6,7.81-12.41,15.17-20.31,21.14a1.9,1.9,0,0,1-1.78-.14c-3-1.66-5.74-.91-8.36,1a127.13,127.13,0,0,1-58.77,23,66.27,66.27,0,0,1-7.45.39c-4.51,0-9,0-13.53,0-26.14-.69-49.25-9.93-69.68-25.7-25-19.28-40.23-44.79-46.3-75.71-.84-4.26-1.66-8.56-1.37-13a11.57,11.57,0,0,0-.49-4.71,42,42,0,0,1,0-10.21,13.36,13.36,0,0,0,.53-4.83c.42-13.9,4-27.06,9.74-39.63,2.15-4.72,4.49-9.16,1.75-14.36,2.64-6.82,7.37-12.3,11.72-18,4.09-5.37,9.19-9.79,13.88-14.6A7,7,0,0,1,74,128c4.51,1.42,8-.31,11.71-2.91a118.65,118.65,0,0,1,61.38-21.85c33.32-2.24,63.31,7.12,89.08,28.54,25.33,21.06,39.87,48.23,44,80.82a116.55,116.55,0,0,1-11,67.29A12.87,12.87,0,0,0,269,291.78Z"/><path class="cls-6" d="M164,350.21c14.6-.42,28.33-4.43,41.71-10a115.52,115.52,0,0,0,23.81-13.72c3.65-2.66,6-2.41,10.2.46,2.47,5,1.73,7.41-2.87,10.72a138.14,138.14,0,0,1-33.88,18A135,135,0,0,1,169.55,363a139,139,0,0,1-17.53.58A134.38,134.38,0,0,1,89.46,346a133.91,133.91,0,0,1-32-24.8,138.1,138.1,0,0,1-35.22-67.95c-2.52-12.2-2.78-24.51-2-36.75A124.49,124.49,0,0,1,34,166.63c2.28-4.38,4.92-5.23,9.94-3.52,3.51,3.28,3,6.84,1.07,10.76-6.74,13.59-11,27.87-11.55,43.11-.89,1.41.16,3.11-.68,4.52v11.17c.85,1.41-.23,3.11.69,4.51-.21,8.51,1.87,16.67,4.23,24.7a122.6,122.6,0,0,0,27.42,48.5c16.44,18.08,36.59,29.92,60,36.38A83.38,83.38,0,0,0,149,350.2,65.35,65.35,0,0,0,164,350.21Z"/><path class="cls-7" d="M269,291.78c-3.53-3.18-3.51-6.69-1.44-10.75a115.76,115.76,0,0,0,12-43.51c2.68-33.08-6.6-62.51-27.24-88.19a118.18,118.18,0,0,0-70.05-42.72c-35.82-7.31-69-.29-98.79,21.22-3.15,2.28-6.27,2.93-9.45.12-3.29-4.9-2.87-7.22,1.74-10.62a131.9,131.9,0,0,1,59.41-24.6,136.89,136.89,0,0,1,74.92,9.13,136.2,136.2,0,0,1,81.43,105.35c3.61,23.9.75,47-7.68,69.51-1.35,3.61-3.07,7.08-4.76,10.55C276.42,292.67,274.68,293.4,269,291.78Z"/><path class="cls-8" d="M156.68,130.17c5.44-.4,9.2,2.37,11.41,6.9,5.9,12.08,11.55,24.29,17.23,36.48,2.76,5.92,7.19,9,13.78,9.84,12.05,1.5,24.06,3.38,36.06,5.32,5.7.92,10.1,4.16,11.6,9.82s.49,10.75-4,15.06c-9,8.66-17.4,17.87-26.26,26.62a17.12,17.12,0,0,0-5.2,15.9c1.95,12.84,4.25,25.63,6.44,38.44,1,6.11-.77,11.07-5.81,14.74-3.87,2.82-10.51,2.53-15.27-.14q-16.93-9.52-34.06-18.71c-4.47-2.38-9-1.86-13.47.7-10,5.64-20.13,11-30.22,16.41-3,1.65-5.84,3.72-9.6,3.76-9.47.11-15.79-7-14.23-16.28,2.18-12.94,4.54-25.85,6.52-38.81.91-6-.37-11.15-5.09-15.94-8.94-9-17.82-18.14-26.77-27.17a13.85,13.85,0,0,1-3.6-14.71c1.87-6,6.36-9,12.42-9.83,12.39-1.78,24.8-3.47,37.17-5.39,5.56-.87,9.36-4.24,11.73-9.35q8.43-18.12,17-36.15C146.9,132.67,150.79,129.7,156.68,130.17Z"/><path class="cls-1" d="M164,350.21a32,32,0,0,1-15,0Z"/><path class="cls-1" d="M32.81,221.5c.16-1.51-.61-3.17.68-4.52C33.33,218.5,34.05,220.15,32.81,221.5Z"/><path class="cls-1" d="M33.5,237.18c-1.31-1.34-.52-3-.7-4.51C34.06,234,33.31,235.67,33.5,237.18Z"/></g></g></svg>