<?xml version="1.0" standalone="no"?>
<!DOCTYPE svg PUBLIC "-//W3C//DTD SVG 20010904//EN"
 "http://www.w3.org/TR/2001/REC-SVG-20010904/DTD/svg10.dtd">
<svg version="1.0" xmlns="http://www.w3.org/2000/svg"
 width="512.000000pt" height="512.000000pt" viewBox="0 0 512.000000 512.000000"
 preserveAspectRatio="xMidYMid meet">

<g transform="translate(0.000000,512.000000) scale(0.100000,-0.100000)"
fill="white" stroke="none">
<path d="M2386 5109 c-482 -66 -886 -397 -1036 -847 -62 -188 -63 -194 -67
-727 l-5 -489 -47 -56 c-319 -371 -476 -805 -458 -1270 6 -167 21 -267 62
-418 153 -560 590 -1020 1147 -1207 463 -154 955 -119 1393 100 179 90 297
176 450 330 237 236 382 486 465 797 81 308 79 660 -7 968 -70 253 -199 486
-381 690 l-60 67 -5 489 c-3 417 -6 500 -21 564 -61 264 -177 478 -353 652
-180 177 -394 291 -648 343 -95 20 -332 28 -429 14z m384 -529 c265 -74 459
-268 532 -536 19 -70 22 -111 26 -356 2 -153 2 -278 -1 -278 -3 0 -47 16 -98
36 -456 177 -869 180 -1313 8 -50 -19 -99 -38 -110 -41 -17 -6 -18 5 -13 278
4 255 6 292 26 359 60 203 181 359 361 463 56 32 183 75 258 87 84 13 246 3
332 -20z m-51 -2029 c217 -67 362 -286 348 -526 -8 -152 -79 -290 -187 -369
l-57 -41 -5 -200 c-3 -125 -9 -211 -17 -230 -42 -104 -125 -158 -239 -158
-113 1 -186 43 -229 132 -27 55 -28 61 -31 256 l-4 201 -34 24 c-123 83 -214
256 -214 403 0 205 175 436 384 509 71 24 205 24 285 -1z"/>
</g>
</svg>
