<?xml version="1.0" encoding="UTF-8"?>
<!DOCTYPE svg PUBLIC "-//W3C//DTD SVG 1.1//EN" "http://www.w3.org/Graphics/SVG/1.1/DTD/svg11.dtd">
<svg xmlns="http://www.w3.org/2000/svg" version="1.1" width="512px" height="512px" style="shape-rendering:geometricPrecision; text-rendering:geometricPrecision; image-rendering:optimizeQuality; fill-rule:evenodd; clip-rule:evenodd" xmlns:xlink="http://www.w3.org/1999/xlink">
<g><path style="opacity:1" fill="#b2d94b" d="M 333.5,-0.5 C 335.5,-0.5 337.5,-0.5 339.5,-0.5C 364.351,38.9388 363.185,77.6055 336,115.5C 325.587,127.281 313.087,135.947 298.5,141.5C 307.769,112.528 317.935,83.8612 329,55.5C 330.13,49.4616 327.63,46.1283 321.5,45.5C 320.81,33.0744 317.477,21.4078 311.5,10.5C 318.307,5.76325 325.64,2.09659 333.5,-0.5 Z"/></g>
<g><path style="opacity:0.987" fill="#c4e765" d="M 311.5,10.5 C 317.477,21.4078 320.81,33.0744 321.5,45.5C 318.737,45.7438 316.571,47.0771 315,49.5C 303.646,78.7394 292.812,108.073 282.5,137.5C 262.612,101.599 264.112,66.5991 287,32.5C 293.794,23.5346 301.96,16.2012 311.5,10.5 Z"/></g>
<g><path style="opacity:0.992" fill="#6c8a13" d="M 321.5,45.5 C 327.63,46.1283 330.13,49.4616 329,55.5C 317.935,83.8612 307.769,112.528 298.5,141.5C 291.298,163.772 284.298,186.106 277.5,208.5C 276.662,208.842 276.328,209.508 276.5,210.5C 258.065,239.972 250.899,271.972 255,306.5C 284.63,263.869 321.13,228.369 364.5,200C 372.718,198.885 376.218,202.385 375,210.5C 330.979,240.021 294.146,276.687 264.5,320.5C 263.878,321.627 263.045,322.627 262,323.5C 261.333,346.833 261.333,370.167 262,393.5C 271.452,373.922 284.285,356.922 300.5,342.5C 318.847,326.174 339.514,313.507 362.5,304.5C 368.683,305.172 371.183,308.506 370,314.5C 369.215,316.286 368.049,317.786 366.5,319C 342.396,328.521 321.729,342.688 304.5,361.5C 279.366,388.452 265.032,420.452 261.5,457.5C 261.5,458.833 261.5,460.167 261.5,461.5C 261.666,469.507 261.5,477.507 261,485.5C 258.565,490.224 254.731,491.724 249.5,490C 247.951,488.786 246.785,487.286 246,485.5C 245.5,476.173 245.334,466.839 245.5,457.5C 243.974,430.044 235.974,404.711 221.5,381.5C 202.808,352.982 177.808,331.815 146.5,318C 141.167,313.333 141.167,308.667 146.5,304C 148.833,303.333 151.167,303.333 153.5,304C 185.168,318.317 211.168,339.484 231.5,367.5C 236.727,374.268 241.227,381.601 245,389.5C 245.823,344.792 245.656,300.125 244.5,255.5C 222.572,214.726 195.405,177.726 163,144.5C 160.266,135.895 163.433,132.062 172.5,133C 205.988,166.49 234.155,203.99 257,245.5C 259.692,231.969 261.025,218.303 261,204.5C 261.41,203.099 261.91,201.766 262.5,200.5C 268.763,179.378 275.429,158.378 282.5,137.5C 292.812,108.073 303.646,78.7394 315,49.5C 316.571,47.0771 318.737,45.7438 321.5,45.5 Z M 264.5,320.5 C 265.708,321.234 267.041,321.567 268.5,321.5C 281.235,323.014 293.901,322.681 306.5,320.5C 303.895,327.652 301.895,334.985 300.5,342.5C 284.285,356.922 271.452,373.922 262,393.5C 261.333,370.167 261.333,346.833 262,323.5C 263.045,322.627 263.878,321.627 264.5,320.5 Z"/></g>
<g><path style="opacity:0.993" fill="#9bbf41" d="M 262.5,200.5 C 261.91,201.766 261.41,203.099 261,204.5C 261.025,218.303 259.692,231.969 257,245.5C 234.155,203.99 205.988,166.49 172.5,133C 163.433,132.062 160.266,135.895 163,144.5C 195.405,177.726 222.572,214.726 244.5,255.5C 180.564,253.798 135.73,223.798 110,165.5C 97.4488,132.909 96.2821,99.9088 106.5,66.5C 167.886,63.935 214.053,88.935 245,141.5C 254.426,160.225 260.259,179.892 262.5,200.5 Z"/></g>
<g><path style="opacity:0.997" fill="#9bbf41" d="M 378.5,147.5 C 382.226,149.13 386.226,150.13 390.5,150.5C 397.281,191.703 388.781,229.369 365,263.5C 332.986,283.25 300.819,302.583 268.5,321.5C 267.041,321.567 265.708,321.234 264.5,320.5C 294.146,276.687 330.979,240.021 375,210.5C 376.218,202.385 372.718,198.885 364.5,200C 321.13,228.369 284.63,263.869 255,306.5C 250.899,271.972 258.065,239.972 276.5,210.5C 277.338,210.158 277.672,209.492 277.5,208.5C 302.802,174.573 336.469,154.239 378.5,147.5 Z"/></g>
<g><path style="opacity:1" fill="#85aa19" d="M 399.5,264.5 C 389.865,264.013 380.532,265.013 371.5,267.5C 341.678,275.336 320.011,293.003 306.5,320.5C 293.901,322.681 281.235,323.014 268.5,321.5C 300.819,302.583 332.986,283.25 365,263.5C 388.781,229.369 397.281,191.703 390.5,150.5C 386.226,150.13 382.226,149.13 378.5,147.5C 393.922,146.078 409.255,146.744 424.5,149.5C 432.098,191.427 423.764,229.761 399.5,264.5 Z"/></g>
<g><path style="opacity:0.99" fill="#c4e765" d="M 231.5,367.5 C 211.168,339.484 185.168,318.317 153.5,304C 151.167,303.333 148.833,303.333 146.5,304C 141.167,308.667 141.167,313.333 146.5,318C 177.808,331.815 202.808,352.982 221.5,381.5C 167.401,391.362 125.901,373.028 97,326.5C 86.4314,306.661 82.4314,285.661 85,263.5C 131.651,250.329 171.651,261.329 205,296.5C 222.008,317.015 230.842,340.682 231.5,367.5 Z"/></g>
<g><path style="opacity:1" fill="#b2d94b" d="M 399.5,264.5 C 408.733,265.379 417.566,267.712 426,271.5C 424.3,319.524 400.467,350.357 354.5,364C 342.173,366.963 329.839,367.13 317.5,364.5C 356.152,354.681 380.319,330.348 390,291.5C 391.39,284.839 391.556,278.173 390.5,271.5C 384.61,268.143 378.277,266.809 371.5,267.5C 380.532,265.013 389.865,264.013 399.5,264.5 Z"/></g>
<g><path style="opacity:0.998" fill="#c4e765" d="M 371.5,267.5 C 378.277,266.809 384.61,268.143 390.5,271.5C 391.556,278.173 391.39,284.839 390,291.5C 380.319,330.348 356.152,354.681 317.5,364.5C 313.051,363.971 308.718,362.971 304.5,361.5C 321.729,342.688 342.396,328.521 366.5,319C 368.049,317.786 369.215,316.286 370,314.5C 371.183,308.506 368.683,305.172 362.5,304.5C 339.514,313.507 318.847,326.174 300.5,342.5C 301.895,334.985 303.895,327.652 306.5,320.5C 320.011,293.003 341.678,275.336 371.5,267.5 Z"/></g>
<g><path style="opacity:0.996" fill="#f5cb8f" d="M 245.5,457.5 C 245.334,466.839 245.5,476.173 246,485.5C 246.785,487.286 247.951,488.786 249.5,490C 254.731,491.724 258.565,490.224 261,485.5C 261.5,477.507 261.666,469.507 261.5,461.5C 309.78,465.65 355.447,478.816 398.5,501C 403.916,504.03 408.916,507.53 413.5,511.5C 290.167,511.5 166.833,511.5 43.5,511.5C 67.6097,493.95 94.2763,481.45 123.5,474C 163.453,463.256 204.12,457.756 245.5,457.5 Z"/></g>
<g><path style="opacity:1" fill="#f0c17f" d="M 261.5,457.5 C 320.852,456.937 377.852,468.104 432.5,491C 445.116,496.5 456.782,503.334 467.5,511.5C 449.5,511.5 431.5,511.5 413.5,511.5C 408.916,507.53 403.916,504.03 398.5,501C 355.447,478.816 309.78,465.65 261.5,461.5C 261.5,460.167 261.5,458.833 261.5,457.5 Z"/></g>
</svg>
